<svg xmlns="http://www.w3.org/2000/svg" class="injected-svg" data-src="https://preview.pixlr.com/images/svg/100/1/8ec241a8a7b30f568ae513ea2dc8ef467e6836a9c518a832472d6bf7d62e6604.svg" xmlns:xlink="http://www.w3.org/1999/xlink" id="svg-edited-version" viewBox="0 0 793.707 793.707">
    <path d="M533.747 314.71v27.378h27.39v-82.13h-27.39v54.753m-27.375 54.766v27.376h27.375v-54.765h-27.375v27.39" fill="#231f20" originalFill="#231f20"/>
    <path d="M506.372 287.335v54.753h27.375v-82.13h-27.375v27.377" fill="#672e16" originalFill="#672e16"/>
    <path d="M506.372 259.959h27.375v-54.766h-27.375v54.767m0 383.305V615.89h-27.377v27.376h27.377M478.995 424.23h27.377v-27.377h-27.377v27.376" fill="#231f20" originalFill="#231f20"/>
    <path d="M478.995 369.477v27.376h27.377v-27.376h-27.377" fill="#672e16" originalFill="#672e16"/>
    <path d="M478.995 369.477h27.377v-27.389h-27.377v27.39" fill="#cc793e" originalFill="#cc793e"/>
    <path d="M478.995 314.71v27.378h27.377v-54.753h-27.377v27.376m27.377-54.752v-27.39h-27.377v27.39h27.377" fill="#9d4e24" originalFill="#9d4e24"/>
    <path d="M478.995 232.57h27.377v-27.377h-27.377v27.376" fill="#672e16" originalFill="#672e16"/>
    <path d="M506.372 205.193v-27.376h-27.377v27.376h27.377" fill="#231f20" originalFill="#231f20"/>
    <path d="M451.619 643.265h27.376V615.89h-27.376v27.376" fill="#8b9ca1" originalFill="#8b9ca1"/>
    <path d="M478.995 615.89v-27.377h-27.376v27.376h27.376m-27.376-164.27v27.376h27.376v-54.766h-27.376v27.39" fill="#231f20" originalFill="#231f20"/>
    <path d="M451.619 396.853v27.376h27.376v-27.376h-27.376" fill="#672e16" originalFill="#672e16"/>
    <path d="M451.619 342.088v54.765h27.376v-54.765h-27.376" fill="#9d4e24" originalFill="#9d4e24"/>
    <path d="M478.995 342.088v-54.753h-27.376v27.376h-27.39v54.767h27.39v-27.39h27.376" fill="#e49d3f" originalFill="#e49d3f"/>
    <path d="M478.995 232.57v-27.377h-27.376v27.376h27.376" fill="#9d4e24" originalFill="#9d4e24"/>
    <path d="M451.619 205.193h27.376v-27.376h-27.376v27.376" fill="#672e16" originalFill="#672e16"/>
    <path d="M478.995 177.817v-27.376h-27.376v27.376h27.376m-27.376 492.838h27.376v-27.39h-54.766v27.39h27.39" fill="#231f20" originalFill="#231f20"/>
    <path d="M451.619 615.89h-27.39v27.375h27.39V615.89" fill="#becdd4" originalFill="#becdd4"/>
    <path d="M424.23 615.89h27.389v-27.377h-27.39v27.376" fill="#8b9ca1" originalFill="#8b9ca1"/>
    <path d="M451.619 424.23h-27.39v54.765h27.39v-54.766" fill="#672e16" originalFill="#672e16"/>
    <path d="M424.23 424.23h27.389v-27.377h-27.39v27.376" fill="#9d4e24" originalFill="#9d4e24"/>
    <path d="M424.23 259.959v27.376h27.389v-27.376h-27.39" fill="#e49d3f" originalFill="#e49d3f"/>
    <path d="M424.23 177.817h27.389v-27.376h-27.39v27.376" fill="#9d4e24" originalFill="#9d4e24"/>
    <path d="M396.853 615.89h-27.376v27.375h54.752V615.89h-27.376" fill="#231f20" originalFill="#231f20"/>
    <path d="M424.23 561.137h-27.377v54.752h27.376v-54.752" fill="#becdd4" originalFill="#becdd4"/>
    <path d="M396.853 561.137h27.376v-54.765h-27.376v54.765" fill="#8b9ca1" originalFill="#8b9ca1"/>
    <path d="M396.853 451.619v27.376h27.376v-27.376h-27.376" fill="#cc793e" originalFill="#cc793e"/>
    <path d="M424.23 424.23h-27.377v27.389h27.376v-27.39" fill="#9d4e24" originalFill="#9d4e24"/>
    <path d="M424.23 424.23v-27.377h27.389v-27.376h-27.39v-54.766h27.39v-27.376h-27.39v-27.376h27.39v27.376h54.753v-27.376h-27.377v-27.39h-27.376v-54.752h-27.39v27.376h-82.141v54.767h-27.377v54.752h-27.375v54.766h27.375v27.375h27.377v27.376h27.39v27.39h27.375v-27.39h27.376" fill="#cc793e" originalFill="#cc793e"/>
    <path d="M424.23 205.193v-27.376h-54.753v27.376h54.752" fill="#9d4e24" originalFill="#9d4e24"/>
    <path d="M396.853 561.137h-27.376v54.752h27.376v-54.752" fill="#e4f0f4" originalFill="#e4f0f4"/>
    <path d="M396.853 533.747v-27.375h-27.376v54.765h27.376v-27.39" fill="#becdd4" originalFill="#becdd4"/>
    <path d="M396.853 478.995v-27.376h-27.376v-27.39h-27.389v54.766h54.765" fill="#9d4e24" originalFill="#9d4e24"/>
    <path d="M396.853 150.441h54.766v-27.389H342.088v27.39h54.765" fill="#231f20" originalFill="#231f20"/>
    <path d="M342.088 615.89v27.375h27.39V615.89h-27.39" fill="#e4f0f4" originalFill="#e4f0f4"/>
    <path d="M369.477 615.89v-27.377h-27.389v27.376h27.39" fill="#fff" originalFill="#fff"/>
    <path d="M369.477 561.137v-54.765h54.752v82.141h27.39V478.995H342.088v109.518h27.39v-27.376m-54.768 82.128v27.39h54.767v-27.39h-54.766" fill="#231f20" originalFill="#231f20"/>
    <path d="M342.088 615.89h-27.377v27.375h27.377V615.89" fill="#fff" originalFill="#fff"/>
    <path d="M342.088 588.513h-27.377v27.376h27.377v-27.376m0-164.283h-27.377v54.765h27.377v-54.766" fill="#231f20" originalFill="#231f20"/>
    <path d="M342.088 396.853h-27.377v27.376h27.377v-27.376m0-164.283h-27.377v27.389h27.377v-27.39" fill="#9d4e24" originalFill="#9d4e24"/>
    <path d="M342.088 205.193h-27.377v27.376h27.377v-27.376" fill="#e49d3f" originalFill="#e49d3f"/>
    <path d="M342.088 205.193h27.39v-27.376h54.751v-27.376h-82.141v27.376h-27.377v27.376h27.377" fill="#fff" originalFill="#fff"/>
    <path d="M342.088 150.441h-27.377v27.376h27.377v-27.376M287.336 615.89v27.375h27.375V615.89h-27.375m0-219.037v27.376h27.375v-27.376h-27.375" fill="#231f20" originalFill="#231f20"/>
    <path d="M314.71 369.477h-27.374v27.376h27.375v-27.376" fill="#e49d3f" originalFill="#e49d3f"/>
    <path d="M314.71 232.57v-27.377h-27.374v27.376h27.375" fill="#fff" originalFill="#fff"/>
    <path d="M314.71 177.817h-27.374v27.376h27.375v-27.376m-27.375 164.271h-27.377v54.765h27.377v-54.765" fill="#231f20" originalFill="#231f20"/>
    <path d="M287.336 314.71h27.375v-82.14h-27.375v54.765h-27.377v54.753h27.377v-27.377" fill="#e49d3f" originalFill="#e49d3f"/>
    <path d="M287.336 287.335v-27.376h-27.377v27.376h27.377" fill="#fff" originalFill="#fff"/>
    <path d="M287.336 232.57v-27.377h-27.377v54.766h27.377v-27.39m-27.377 54.766v-27.376h-27.39v82.129h27.39v-54.753" fill="#231f20" originalFill="#231f20"/>
</svg>