<svg xmlns="http://www.w3.org/2000/svg" class="injected-svg" data-src="https://preview.pixlr.com/images/svg/100/1/0b9d89c88fbaea43a356785f011e14215df09b38a873d766ae5c874d0d7ee12e.svg" xmlns:xlink="http://www.w3.org/1999/xlink" id="svg-edited-version" viewBox="0 0 793.707 793.707">
    <path d="M574.825 396.86v136.895h27.376v-191.66h-27.376v54.765m-27.39 164.27h27.39v-27.375h-27.39v27.376m27.39-219.036v-27.376h-27.39v27.376h27.39m0-109.519V205.2h-27.39v27.376h27.39M520.059 588.52h27.376v-27.39h-27.376v27.39m0-328.568h27.376v-27.376h-27.376v27.376" fill="#231f20" originalFill="#231f20"/>
    <path d="M520.059 232.576h27.376V205.2h-27.376v27.376" fill="#257838" originalFill="#257838"/>
    <path d="M547.435 205.2v-27.376h-27.376V205.2h27.376m-54.751 410.696h27.375V588.52h-27.375v27.376m27.375-301.177h27.376v-27.376h-54.751v27.376h27.375M492.684 205.2h-27.377v27.376h54.752V205.2h-27.375" fill="#231f20" originalFill="#231f20"/>
    <path d="M492.684 205.2h27.375v-27.376h-27.375V205.2" fill="#5dc357" originalFill="#5dc357"/>
    <path d="M492.684 287.343v-27.391h-27.377v27.39h27.377" fill="#231f20" originalFill="#231f20"/>
    <path d="M492.684 205.2v-27.376h-54.767V205.2h54.767" fill="#fff" originalFill="#fff"/>
    <path d="M437.917 615.896H301.024v27.376h191.66v-27.376h-54.767" fill="#231f20" originalFill="#231f20"/>
    <path d="M437.917 287.343h-82.141v27.376h109.53v27.376h27.378v27.376h27.375v164.284h-54.752v27.376H410.54v27.389H328.4v27.376h164.284V588.52h27.375v-27.39h27.376v-27.375h27.39v-191.66h-27.39v-27.376h-54.751v-27.376h-27.377v-27.391h-27.39v27.39" fill="#9a161b" originalFill="#9a161b"/>
    <path d="M437.917 259.952h27.39v-27.376h-27.39v27.376" fill="#231f20" originalFill="#231f20"/>
    <path d="M437.917 205.2v27.376h27.39V205.2h-27.39" fill="#257838" originalFill="#257838"/>
    <path d="M465.307 177.824h54.752v-27.39H410.54v27.39h54.767" fill="#231f20" originalFill="#231f20"/>
    <path d="M437.917 259.952v-27.376h-27.376v27.376h27.376" fill="#257838" originalFill="#257838"/>
    <path d="M437.917 205.2h-27.376v27.376h27.376V205.2" fill="#32af49" originalFill="#32af49"/>
    <path d="M437.917 205.2v-27.376h-27.376V205.2h27.376" fill="#5dc357" originalFill="#5dc357"/>
    <path d="M383.165 259.952h-27.389v27.39h82.141v-27.39h-54.752" fill="#231f20" originalFill="#231f20"/>
    <path d="M410.541 259.952v-27.376h-27.376v27.376h27.376" fill="#32af49" originalFill="#32af49"/>
    <path d="M410.541 232.576V205.2h-27.376v27.376h27.376" fill="#5dc357" originalFill="#5dc357"/>
    <path d="M410.541 177.824h-27.376V205.2h27.376v-27.376" fill="#231f20" originalFill="#231f20"/>
    <path d="M383.165 259.952v-27.376h-27.389v27.376h27.39" fill="#5dc357" originalFill="#5dc357"/>
    <path d="M383.165 232.576V205.2h-27.389v27.376h27.39" fill="#231f20" originalFill="#231f20"/>
    <path d="M355.776 369.47H328.4v27.39h27.376v-27.39" fill="#fbcbd6" originalFill="#fbcbd6"/>
    <path d="M328.4 342.095h-27.376v27.376h-27.377v27.389h-27.39v82.142h27.39v-54.765h27.377V396.86H328.4v-27.39h27.376v27.39H328.4v54.752h-27.376v27.39h-27.377v27.377H328.4v-27.376h54.766V342.095h27.375v-27.376h-54.765v27.376H328.4" fill="#ef3259" originalFill="#ef3259"/>
    <path d="M328.4 259.952v27.39h27.376v-27.39H328.4" fill="#9a161b" originalFill="#9a161b"/>
    <path d="M355.776 259.952v-27.376H328.4v27.376h27.376" fill="#231f20" originalFill="#231f20"/>
    <path d="M328.4 232.576h27.376V205.2H328.4v27.376" fill="#cc793e" originalFill="#cc793e"/>
    <path d="M355.776 205.2v-27.376H328.4V205.2h27.376" fill="#231f20" originalFill="#231f20"/>
    <path d="M328.4 588.52h82.141v-27.39h54.766v-27.375h54.752V369.47h-27.375v-27.375h-27.377v-27.376H410.54v27.376h-27.376v136.907H328.4v27.377h-27.376v109.517H328.4V588.52m-27.376-246.425h54.752v-54.752h-54.752v54.752" fill="#ed1d24" originalFill="#ed1d24"/>
    <path d="M328.4 259.952h-27.376v27.39H328.4v-27.39" fill="#231f20" originalFill="#231f20"/>
    <path d="M328.4 232.576h-27.376v27.376H328.4v-27.376" fill="#672e16" originalFill="#672e16"/>
    <path d="M301.024 205.2v27.376H328.4v-54.752h-27.376V205.2" fill="#9d4e24" originalFill="#9d4e24"/>
    <path d="M301.024 150.435h-27.377v109.517h27.377v-82.128H328.4v-27.39h-27.376M273.647 588.52v27.376h27.377V588.52h-27.377" fill="#231f20" originalFill="#231f20"/>
    <path d="M301.024 561.13v-54.75h-54.767v-27.376h-27.376v54.752h27.376v27.376h27.39v27.389h27.377v-27.39" fill="#9a161b" originalFill="#9a161b"/>
    <path d="M301.024 451.612H328.4V396.86h-27.376v27.376h-27.377v54.766h27.377v-27.39" fill="#fbcbd6" originalFill="#fbcbd6"/>
    <path d="M301.024 314.719v-27.376h-54.767v27.376h54.767M246.257 561.13v27.39h27.39v-27.39h-27.39" fill="#231f20" originalFill="#231f20"/>
    <path d="M246.257 479.003v27.376h27.39v-27.376h-27.39m27.39-109.533h27.377v-27.375h-54.767v54.765h27.39v-27.39" fill="#ed1d24" originalFill="#ed1d24"/>
    <path d="M273.647 342.095h27.377v-27.376h-54.767v27.376h27.39" fill="#9a161b" originalFill="#9a161b"/>
    <path d="M218.881 533.755v27.376h27.376v-27.376h-27.376" fill="#231f20" originalFill="#231f20"/>
    <path d="M246.257 424.236V396.86h-27.376v82.143h27.376v-54.767" fill="#ed1d24" originalFill="#ed1d24"/>
    <path d="M218.881 396.86h27.376v-54.765h-27.376v54.765" fill="#9a161b" originalFill="#9a161b"/>
    <path d="M246.257 314.719h-27.376v27.376h27.376v-27.376m-27.376 164.284V342.095h-27.376v191.66h27.376v-54.752" fill="#231f20" originalFill="#231f20"/>
</svg>