<svg xmlns="http://www.w3.org/2000/svg" class="injected-svg" data-src="https://preview.pixlr.com/images/svg/100/1/ef5812620cb18643b5747d70d3ba7acd4992f245ebe2c479494481188b903f55.svg" xmlns:xlink="http://www.w3.org/1999/xlink" id="svg-edited-version" viewBox="0 0 786.667 786.667">
    <path d="M634.96 544.316v-12.213h-12.2v-12.2h-36.64v-12.214h-24.413v-24.426h-12.214v-12.214H537.28v-12.213h-24.427v36.64H500.64v12.213h12.213v12.214h12.214v12.2h12.213v12.213h12.213v12.213h-24.426v-12.213h-12.214v-12.213h-36.626v12.213h12.213v12.213h12.2v12.214h12.213v12.213h12.214v61.053h24.426v-12.213h12.214v-36.64h24.413v-12.2h24.427v-12.213h24.413v-12.214h12.213v-12.213H634.96" fill="#fff" originalFill="#fff"/>
    <path d="M634.96 556.53v12.213h-24.413v12.213h-12.214v24.413h36.627v-12.213h12.213v-36.627H634.96m-73.253 36.627v36.64h-12.214v12.213h-24.426v-61.053h-12.214v-12.213H500.64v-12.214h-12.2v-12.213h-12.213v-12.213h36.626v12.213h12.214v12.213h24.426v-12.213H537.28v-12.213h-12.213v-12.2h-12.214v-12.214h-73.266v24.414H451.8v12.213h12.213v12.213h12.214v12.214h12.213v24.413h12.2v12.213h12.213v48.853h24.427v12.2h36.627v-12.2h12.213v-61.066h-24.413" fill="#f8c0aa" originalFill="#f8c0aa"/>
    <path d="M464.013 239.05v-24.427H451.8v-12.214h-12.213v-12.2h-12.2v-12.213h-12.214v-12.213H402.96v-12.214h-24.427v-12.213H366.32v-12.213H232v12.213h85.48v12.213h12.213v12.214h36.627v24.426h12.213v12.2h-36.626v12.214h-12.214v73.266h24.427v-12.213h12.2v-12.213h12.213v-36.627h24.427v12.213h36.627v24.414H451.8v24.426h12.213v24.427h12.214v-36.64h-12.214v-12.213h12.214v-24.414h-12.214M439.587 373.37h-12.2v-24.427h-12.214v-12.215h-24.426v24.428h12.213v12.213h12.213v24.414h12.214v12.213H451.8v-24.413h-12.213v-12.214m-73.267 73.267h-12.2v12.2h-12.213v12.213h24.413v12.214h24.427v-36.627H366.32m-24.413-48.853v-12.2h-12.214v-12.214h-24.426v-12.213h-12.2v-12.213h-36.64v12.213h12.213v12.213h12.213v12.214h12.214v12.2h24.413v12.213h24.427v-12.213M232 422.21v24.426h24.427v-24.427H232m0-24.426h-24.413v24.426H232v-24.426m-48.84-73.267v-12.2h-12.213v12.2h12.213m-12.213-73.253h-12.2v61.053h12.2v-12.213h12.213v-61.054h-12.213v12.214" fill="#f36730" originalFill="#f36730"/>
    <path d="M500.64 348.943v-36.627h-12.2v-36.64h-12.213v36.64h-12.214v-24.427H451.8v36.627h12.213v24.427h12.214v36.64h12.213v12.2h24.413v-48.84H500.64" fill="#d55215" originalFill="#d55215"/>
    <path d="M464.013 263.463v12.213h12.214v-12.213h-12.214M451.8 409.996h-24.413v-12.213h-12.214v24.426h24.414v12.214h24.426v-36.64H451.8v12.213m0-24.413v-24.427h-24.413v12.213h12.2v12.214H451.8m0-109.907v-12.213h-12.213v12.213H451.8m-24.413 61.052h-12.214v12.215h12.214v-12.215" fill="#d55215" originalFill="#d55215"/>
    <path d="M415.173 373.37H402.96v-12.214h-12.213v-24.428h12.213v-24.412h12.213v-12.213h12.214v-24.427h-36.64v-12.213h12.213v-12.2h24.427v12.2h12.2v-24.414H402.96v-12.213h-24.427v36.627H366.32v12.213h-12.2v12.213h-24.427v-73.266h12.214v-12.214h-36.64v12.214h-12.2v24.426h-12.214v36.627h12.214v12.213h12.2v12.214h24.426v61.053h24.427v12.213h24.413v12.214h12.214v12.2h24.426v-24.414m-24.426 109.894H366.32v-12.214h-24.413v-12.213h-36.64v12.213h24.426v12.214h24.427v12.213h48.84v-24.427h-12.213v12.214" fill="#d55215" originalFill="#d55215"/>
    <path d="M305.267 422.21h12.213v12.213h48.84v-12.214h12.213v-12.213H366.32v-12.213h-12.2v-12.2h-12.213v24.413H317.48v-12.213h-24.413v-12.2h-12.214v-12.214H268.64v-12.213h-12.213v-12.213h36.64v-12.215H268.64v-12.212h-12.213v-12.2H232v12.2h-12.2v-12.2h-12.213v-36.64H219.8v-36.627H232v-12.213h12.213v-12.213h12.214v-12.214h36.64v-12.2h24.413v-12.213h24.427v12.213h12.213v12.2h24.413v-12.2H366.32v-24.426h-36.627v-12.214H317.48v-12.213h-73.267v24.427H232v12.213h-12.2v24.413h-12.213v12.214h-12.214v12.213h-24.426v12.213h12.213v61.054h-12.213v12.213h12.213v12.2h-12.213v-12.2h-12.2v48.84h12.2v12.213h12.213v24.414h12.213v12.213h12.214v-12.213H219.8v-12.2h-12.213v-36.64H219.8v24.426h24.413v12.214h12.214v12.2h24.426v12.213h24.414v12.213" fill="#d55215" originalFill="#d55215"/>
    <path d="M305.267 361.156v12.213h12.213v-24.426h-24.413v12.213h12.2m-48.84 73.267v12.213h12.213v-24.427h-12.213v12.214m-12.214-24.427H232v12.213h24.427v-12.213h-12.214M219.8 434.423H232v-12.214h-12.2v12.214m-61.053-183.16h12.2v-12.214h-12.2v12.214" fill="#d55215" originalFill="#d55215"/>
    <path d="M402.96 495.476h-48.84v-12.213h-24.427v-12.214h-24.426v-12.213h48.853v-12.2h36.627v24.413h12.213v12.214zm97.68-97.693h-12.2v-12.2h-12.213v-36.64h-12.214v-24.427H451.8v-48.84h-12.213v-12.213h-12.2v-12.2H402.96v12.2h-12.213v12.213h36.64v24.427h-12.214v12.213H402.96v24.412h24.427v24.428H451.8v36.627h12.213v36.64h-24.426v-12.214h-24.414v-24.426h-24.426v-12.2h-12.214v-12.214H354.12v-12.213h-24.427v-61.053h-24.426v-12.214h-12.2v-12.213h-12.214v-36.627h12.214v-24.426h12.2v-12.214h48.853v-12.2h-12.213v-12.213H317.48v12.213h-24.413v12.2h-36.64v12.214h-12.214v12.213H232v12.213h-12.2v36.627h-12.213v36.64H219.8v12.2H232v-12.2h24.427v12.2h12.213v12.212h24.427v12.215h24.413v24.426h12.213v12.214h24.427v12.2h12.2v12.213h12.213v12.213H366.32v12.214h-48.84v-12.214h-12.213v-12.213h-24.414v-12.213h-24.426v-12.2h-12.214v-12.214H219.8v-24.426h-12.213v36.64H219.8v12.2H232v12.213h24.427v12.213h12.213v24.427H232v-12.213h-12.2v-12.214h-12.213v-12.213h-12.214v-12.213H183.16v-24.414h-12.213v-12.213h-12.2V239.049h12.2v-12.213h24.426v-12.213h12.214v-12.214H219.8v-24.413H232v-12.213h12.213v-24.427h-48.84v24.427h-24.426v12.213h-12.2v12.213h-12.214v12.2H134.32v24.427h-12.213v48.84h-12.214v73.267h12.214v36.64h12.213v36.626h12.213v24.427h12.214v12.2h12.2v12.213h24.426v12.214H219.8v12.213H232v12.213h61.067v12.214h61.053v12.2h61.053v-12.2h12.214v-24.427h-12.214v-12.213H451.8v12.213h36.64v-12.213h12.2v-24.427h12.213v-61.053H500.64" fill="#742b0a" originalFill="#742b0a"/>
    <path d="M647.173 532.103v-12.2H622.76v12.2h12.2v12.213h12.213v48.84H634.96v12.213h-36.627v-24.413H586.12v73.266h-12.213v12.2H537.28v-12.2h-24.427V605.37H500.64v61.053h24.427v12.214h61.053v-12.214h12.213v-48.839h48.84V605.37h12.214v-73.267h-12.214" fill="rgba(0, 0, 0, 1)" originalFill="#231f20"/>
    <path d="M598.333 519.903h24.427v-12.214h-36.64v12.214h12.213m-36.626-12.213h24.413v-12.214h-12.213v-12.213h-12.2v24.426m-73.267 85.467v12.213h12.2v-12.213h-12.2" fill="rgba(0, 0, 0, 1)" originalFill="#231f20"/>
    <path d="M488.44 568.743h-12.213v-12.214h-12.214v-12.213H451.8v-12.213h-12.213v-24.414h61.053v-12.213h12.213v-36.64H500.64v24.427h-12.2v12.213H451.8v-12.213h-36.627v12.213h12.214v24.427h-12.214v12.2H354.12v-12.2h-61.053v-12.214H232v12.214h48.853v12.2h48.84v12.213h109.894v12.213H451.8v12.214h12.213v12.213h12.214v12.2h12.213v-24.413m-12.213-305.28v12.213h12.213v36.64h12.2v36.627h12.213v109.893h24.427v12.213h12.213v12.214h12.214v-24.427h-12.214v-12.2H537.28v-24.427h-12.213v-85.481h-12.214v-36.625H500.64v-36.64h-12.2v-24.414h-12.213v24.414m-12.214-24.413h12.214v-24.427h-12.214v24.426m0-24.426v-12.214H451.8v12.214h12.213M451.8 202.41v-12.2h-12.213v12.2H451.8m-24.413-24.414v12.213h12.2v-24.426h-24.414v12.213h12.214m-12.214-12.213v-12.214H402.96v12.214h12.213m-36.64-24.427v12.213h24.427v-12.213h-12.213v-12.213H366.32v12.213h12.213M219.8 495.476v-12.213h-24.427v-12.214h-24.426v-12.213h-12.2v-12.2h-12.214v24.413h12.214v12.214h24.413v12.213h24.427v12.213H232v-12.213h-12.2m0-354.12H232v-12.213h134.32v-12.2H219.8v12.2h-24.427v12.213H219.8m-24.427 24.427v-24.427H183.16v12.213h-12.213v12.214h24.426m-24.426 0h-12.2v12.213h12.2v-12.213m-12.2 12.213h-12.214v12.213h12.214v-12.213M146.533 422.21H134.32v24.426h12.213v-24.427m0-231.999H134.32v12.2h12.213v-12.2M134.32 397.783v-12.2h-12.213v-36.64h-12.214v-73.267h12.214v-48.84h-12.214v36.627h-12.2v97.693h12.2v36.627h12.214v24.426h12.213v-24.426m0-183.16v-12.214h-12.213v24.427h12.213v-12.213" fill="rgba(0, 0, 0, 1)" originalFill="#231f20"/>
</svg>